<?xml version="1.0" encoding="utf-8"?>
<!-- Generator: Adobe Illustrator 22.1.0, SVG Export Plug-In . SVG Version: 6.00 Build 0)  -->
<svg version="1.1" id="Capa_1" xmlns="http://www.w3.org/2000/svg" x="0px"
     y="0px"
     viewBox="0 0 150 40" style="enable-background:new 0 0 150 40;" xml:space="preserve">
<style type="text/css">
	.st0{fill:#FFFFFF;}
	.st1{fill:#DBAD3A;}
</style>
    <title>Mesa de trabajo 10</title>
    <g>
	<path class="st0" d="M10.4,7.2c2.2,0,4,1.7,4.1,3.9c0,0.5-0.1,0.9-0.3,1.3c2.1,0.8,3.5,2.9,3.6,5.1c0,1.5-0.6,2.9-1.7,3.9
		C15,22.5,13.5,23,12,23H6.3V7.2H10.4L10.4,7.2z M10.4,12.2c0.5,0,1-0.4,1-0.9c0-0.6-0.4-1-1-1H9.5v1.9H10.4z M14.4,17.5
		c0-0.6-0.3-1.3-0.7-1.7c-0.5-0.4-1.1-0.6-1.7-0.5H9.5v4.5H12C13.3,19.9,14.4,18.8,14.4,17.5z"/>
        <path class="st0" d="M31.7,7.1v9.6c0,1.7-0.7,3.4-1.9,4.5c-2.6,2.5-6.7,2.5-9.3,0c-1.3-1.2-2-2.8-1.9-4.5V7.1h3.3v9.6
		c0,0.9,0.4,1.7,1,2.2c0.6,0.6,1.4,1,2.3,0.9c0.9,0,1.7-0.3,2.3-0.9c0.6-0.6,1-1.4,1-2.2V7.1H31.7z"/>
        <path class="st0" d="M37.7,19.9c0.9,0,1.6-0.7,1.7-1.6c0.1-0.6-0.3-1.1-0.8-1.3c-1.2-0.4-0.9-0.3-2-0.7c-1.2-0.4-2.3-1.2-3.1-2.2
		c-0.5-0.6-0.7-1.4-0.7-2.2c0-1.3,0.5-2.5,1.5-3.4c1.9-1.9,5.1-1.9,7,0c0.9,0.9,1.5,2.1,1.5,3.4h-3.3c0-0.9-0.7-1.6-1.7-1.6
		c-0.9,0-1.6,0.7-1.6,1.6c0,0.5,0.2,1,0.7,1.3c0.6,0.4,1.3,0.7,2,0.8c1.2,0.4,2.4,1.1,3.2,2.1c0.5,0.6,0.7,1.4,0.7,2.2
		c0,1.3-0.5,2.5-1.4,3.4c-1.9,1.9-5.1,1.9-7,0c-1-0.9-1.5-2.1-1.5-3.4h3.3C36.1,19.2,36.8,19.9,37.7,19.9
		C37.7,19.9,37.7,19.9,37.7,19.9L37.7,19.9z"/>
        <path class="st0" d="M51.6,7.1c1.1,0,2.2,0.2,3.2,0.6c1,0.4,1.9,1,2.7,1.7l-2.3,2.3c-0.9-0.9-2.2-1.4-3.5-1.4
		c-1.3,0-2.6,0.5-3.5,1.4c-0.9,0.9-1.5,2.1-1.5,3.4c0,1.3,0.5,2.5,1.5,3.4c1.9,1.9,5.1,1.9,7,0l2.3,2.3c-0.8,0.7-1.7,1.3-2.7,1.7
		c-1,0.4-2.1,0.6-3.2,0.6c-2.2,0-4.3-0.8-5.8-2.4c-1.6-1.5-2.5-3.5-2.4-5.7c0-2.2,0.9-4.2,2.4-5.7C47.3,7.9,49.4,7,51.6,7.1
		L51.6,7.1z"/>
        <path class="st0" d="M62.2,20.6c-0.4,0.8-0.7,1.6-1.1,2.4h-3.5L65,6.8L72.4,23h-3.5c-0.4-0.8-0.7-1.6-1.1-2.4L62.2,20.6L62.2,20.6z
		 M66.4,17.8L65,14.5l-1.5,3.3H66.4z"/>
        <path class="st0" d="M77.3,7.1c2.2,0,4.4,0.8,6,2.3c2.9,3.2,2.9,8,0,11.2c-1.6,1.5-3.8,2.4-6,2.3h-4V7.1L77.3,7.1L77.3,7.1z
		 M77.3,19.9c1.3,0.1,2.6-0.4,3.5-1.3c0.9-0.9,1.4-2.2,1.3-3.5c0.1-1.3-0.4-2.6-1.3-3.5c-1-0.9-2.2-1.4-3.5-1.3h-0.8v9.6H77.3z"/>
        <path class="st0" d="M113.4,7.5c1.1,0,2.2,0.2,3.2,0.6c1,0.4,1.9,1,2.6,1.7l-2.3,2.3c-1.9-1.9-5.1-1.9-7,0
		c-1.9,1.8-1.9,4.8-0.1,6.7c0,0,0.1,0.1,0.1,0.1c1.7,1.7,4.4,1.9,6.4,0.5c0.8-0.6,1.5-1.4,1.8-2.3h-4.7V14h8.1
		c0.1,0.5,0.2,1.1,0.2,1.6c0,2.2-0.9,4.2-2.4,5.7c-3.3,3.2-8.4,3.2-11.7,0c-1.6-1.5-2.5-3.5-2.4-5.7c0-2.2,0.9-4.2,2.4-5.7
		C109.1,8.3,111.2,7.5,113.4,7.5L113.4,7.5z"/>
        <path class="st0" d="M95,14.2c-0.3,0-0.7,0.1-1,0.2l-0.3,0.1c-0.2,0.1-0.5,0.1-0.7,0.1h-0.2c-0.2,0-0.4-0.1-0.7-0.1
		c-0.9-0.1-1.7,0.2-1.8,1.4c0,0.2,0,0.4,0.2,0.6l0,0c0.5,0.8,2.1,1,2.9,1.6c0.1,0.1,0.2,0.2,0.3,0.3c0.4,0.4,0.8,0.8,1.2,1.2
		c0.2,0.2,0.5,0.5,0.8,0.6c0.1,0.1,0.3,0.1,0.4,0.1c0.1,0,0.3,0,0.4-0.1c1.2-0.6,1-1.6,0.5-2.5l-0.1-0.2c0-0.1-0.1-0.1-0.1-0.2
		c-0.3-0.7,0.1-1.4-0.2-2.1c-0.2-0.3-0.4-0.6-0.7-0.8c-0.2-0.2-0.4-0.3-0.7-0.4L95,14.2"/>
        <path class="st0" d="M93.8,10.9c-0.2,0-0.3,0-0.5,0.1c-0.3,0.2-0.6,0.5-0.8,0.9l0,0c-0.5,0.7-0.5,1.5-0.1,1.8l0,0
		c0.1,0.1,0.2,0.1,0.3,0.1c0.1,0,0.2,0,0.3,0c0.4-0.1,0.8-0.4,1-0.8c0.1-0.2,0.3-0.4,0.4-0.6c0.2-0.3,0.2-0.6,0.1-0.9
		c-0.1-0.1-0.2-0.2-0.3-0.3C94.1,11,94,10.9,93.8,10.9"/>
        <path class="st0" d="M99.6,14.9c-0.3,0-0.6,0.1-0.8,0.4l0,0c-0.2,0.2-0.3,0.4-0.5,0.6c-0.3,0.4-0.5,1-0.3,1.5
		c0,0.1,0.1,0.3,0.2,0.3c0.1,0.1,0.2,0.1,0.3,0.1c0.1,0,0.3,0,0.4,0c0.4-0.2,0.8-0.4,1-0.8c0-0.1,0.1-0.1,0.1-0.1
		c0.4-0.6,0.7-1.3,0.1-1.8C99.9,14.9,99.7,14.9,99.6,14.9"/>
        <path class="st0" d="M96.8,10.5c-0.5,0-1,0.4-1.4,1l-0.1,0.1c-0.5,0.8-0.6,1.6-0.1,2c0.1,0.1,0.2,0.1,0.4,0.1h0.1
		c0.6-0.1,1.1-0.4,1.4-0.9c0.5-0.8,0.9-1.5,0.2-2.1C97.1,10.7,96.9,10.6,96.8,10.5"/>
        <path class="st0" d="M98.9,12c-0.2,0-0.5,0.1-0.6,0.2c-0.3,0.2-0.6,0.5-0.8,0.8c-0.5,0.7-0.6,1.5-0.2,1.9l0.1,0.1
		c0.1,0.1,0.2,0.1,0.4,0.1c0.6,0,1.2-0.4,1.5-0.9c0.5-0.7,0.8-1.4,0.4-1.9c-0.1-0.1-0.1-0.1-0.2-0.2l-0.1-0.1C99.1,12,99,12,98.9,12
		"/>
        <path class="st1" d="M95.3,24c-2.1,0-4.1-0.7-5.7-2c-1.8-1.5-3-3.6-3.2-5.9c-0.4-4.8,3.2-9.1,8-9.5c2.3-0.2,4.7,0.5,6.5,2
		c1.8,1.5,3,3.6,3.2,5.9l0,0c0.2,2.3-0.5,4.6-2,6.4c-1.5,1.8-3.7,2.9-6,3.1C95.8,23.9,95.5,24,95.3,24z M95.3,9h-0.6
		c-3.5,0.3-6.1,3.4-5.9,6.9c0,0,0,0,0,0c0.2,1.7,1,3.2,2.3,4.3c1.3,1.1,3,1.6,4.7,1.4c1.7-0.1,3.3-1,4.4-2.3
		c1.1-1.3,1.6-2.9,1.5-4.6l0,0c-0.2-1.7-1-3.2-2.3-4.3C98.2,9.5,96.8,8.9,95.3,9L95.3,9z"/>
        <polygon class="st1" points="84.8,27.1 84.7,27.3 86.7,29 86.8,28.8 	"/>
        <polygon class="st1" points="85.4,26.4 85.2,26.5 87.3,28.2 87.4,28 	"/>
        <polygon class="st1" points="86.4,29.3 86.5,29.1 84.5,27.4 84.4,27.6 	"/>
        <polygon class="st1" points="85.1,26.7 85,26.9 87,28.6 87.1,28.4 	"/>
        <path class="st1" d="M89.8,23c-0.6-0.4-1.4-0.3-1.9,0.2l-2.1,2.6l2,1.7l2.2-2.8C90.4,24.2,90.4,23.4,89.8,23
		C89.8,23,89.8,23,89.8,23z"/>
        <path class="st1"
              d="M84.3,27.8l-2.8,3.5c-0.4,0.6-0.4,1.4,0.2,1.8c0,0,0,0,0,0c0.6,0.4,1.4,0.3,1.9-0.2l2.7-3.4L84.3,27.8z"/>
        <polygon class="st1" points="85.7,26 85.5,26.2 87.5,27.9 87.7,27.7 	"/>
        <path class="st1" d="M123.9,20.3c0.7,0,1.3,0.6,1.3,1.3c0,0.7-0.6,1.3-1.3,1.3c-0.7,0-1.3-0.6-1.3-1.3
		C122.6,20.9,123.1,20.3,123.9,20.3C123.9,20.3,123.9,20.3,123.9,20.3z"/>
        <path class="st0" d="M132.3,12.4c0.7,0,1.4,0.1,2.1,0.4c0.6,0.3,1.2,0.6,1.7,1.1l-1.5,1.5c-0.6-0.6-1.4-0.9-2.2-0.9
		c-0.8,0-1.7,0.3-2.2,0.9c-1.2,1.1-1.3,3-0.2,4.2c0,0.1,0.1,0.1,0.2,0.2c0.6,0.6,1.4,0.9,2.2,0.9c0.8,0,1.7-0.3,2.2-0.9l1.5,1.5
		c-0.5,0.5-1.1,0.9-1.7,1.1c-0.7,0.3-1.4,0.4-2.1,0.4c-1.4,0-2.8-0.5-3.8-1.5c-2-1.9-2.1-5.1-0.2-7.2c0.1-0.1,0.1-0.1,0.2-0.2
		C129.6,12.9,130.9,12.4,132.3,12.4L132.3,12.4z"/>
        <path class="st0" d="M140,12.4v8.2h4.2v2.1H138V12.4H140z"/>
</g>
</svg>
